<svg xmlns="http://www.w3.org/2000/svg" width="68" height="11" viewBox="0 0 68 11">
    <g fill="#CDAD80" fill-rule="evenodd">
        <path d="M14 5h40v1H14z"/>
        <path fill-rule="nonzero" d="M57.5 2L54 5.5 57.5 9 61 5.5 57.5 2zm0-1.414L62.414 5.5 57.5 10.414 52.586 5.5 57.5.586z"/>
        <path fill-rule="nonzero" d="M62.5 2L59 5.5 62.5 9 66 5.5 62.5 2zm0-1.414L67.414 5.5 62.5 10.414 57.586 5.5 62.5.586zM5.5 2L2 5.5 5.5 9 9 5.5 5.5 2zm0-1.414L10.414 5.5 5.5 10.414.586 5.5 5.5.586z"/>
        <path fill-rule="nonzero" d="M10.5 2L7 5.5 10.5 9 14 5.5 10.5 2zm0-1.414L15.414 5.5 10.5 10.414 5.586 5.5 10.5.586z"/>
    </g>
</svg>
