<svg version="1.1" id="Layer_1" xmlns="http://www.w3.org/2000/svg" xmlns:xlink="http://www.w3.org/1999/xlink" x="0px" y="0px"
     width="327" height="481"
     viewBox="0 0 327 481" style="enable-background:new 0 0 327 481;" xml:space="preserve">
<style type="text/css">
	.st0{fill:#252F46;}
	.st1{fill:#CDAD80;}
	.st2{fill-rule:evenodd;clip-rule:evenodd;fill:#FFFFFF;}
	.st3{fill:#FFFFFF;}
</style>
    <path class="st1" d="M327,0v481H0V0H327z M117,4H4v473h319V4H211v4h108v465H9V8h108V4z M19,463h-8v8h8V463z M117,10H21v10H11v441
		h10v10h286v-10h10V20h-10V10h-96v8c0,6.6-5.4,12-12,12h-70c-6.6,0-12-5.4-12-12V10z M317,463h-8v8h8V463z M19,10h-8v8h8V10z
		 M317,10h-8v8h8V10z"/>
    <path class="st2" d="M145.2,7h2l-2.4,12h-2.2l1.7-7.3l-4.2,7.3h-2l0.8-7.3l-3.4,7.3H134l4.9-10.6c-1,0.2-2,0.4-2.5,1
		c-0.4,0.5-0.3,1.8,0.3,2.7l-2.2,1c-0.2-2.1,0.2-3.6,1.1-4.5c0.7-0.7,1.8-1.1,2.9-1.4c1-0.2,2-0.2,3.2-0.2l-1,7.8L145.2,7z
		 M156,16.3h0.6c-1.1,2.9-4.9,4-5.1,1.2c-1.7,2.5-5.3,2.1-5-1.2c0.2-2.6,1.5-5.1,4.3-5.2h4l-0.1,0.6c-0.5,2.4-0.8,3.9-1.2,5.7
		C153.1,19.2,155.5,17.8,156,16.3z M151.5,16.5l0.8-4c-1-1.8-2.8,0-3.4,2.5C148.3,17.9,149.3,19.4,151.5,16.5z M158.9,11.5
		c2.5-1.7,3.9,0.7,3.9,2.9c0,1-0.3,2.1-0.7,3c-0.2,0.5-0.5,0.8-1,1.1c-0.4,0.4-1,0.6-1.6,0.6c-0.7,0-1.6-0.3-2-0.7l-0.9,4.6h-2.2
		l2.4-12h2.2L158.9,11.5z M160.5,15.4c0.3-1.5,0.4-4.6-1.8-3.1l-1.1,5.2c0.7,0.9,1.5,0.6,2.1-0.1C160.1,16.9,160.4,16.2,160.5,15.4z
		 M167.4,16.3h0.6c-1.2,3.3-5.7,4.2-4.8-0.1l1.7-8.4h2.1c-0.5,2.7-1.6,7.7-1.9,9.5C164.7,19.2,166.9,17.8,167.4,16.3z M173.2,16.3
		h0.6c-1.2,2.3-2.5,2.9-4.4,2.8c-3-0.1-3.1-3.9-1.6-6.3c1.2-1.9,3.3-2.3,4.2-1.5c0.8,0.7,0.8,1.9,0.4,2.8c-0.7,1.3-2.1,1.8-3.4,1.8
		c0,0.8,0.3,1.7,1,2C171.1,18.5,172.4,17.5,173.2,16.3z M169,15c0,0.1,0,0.1,0,0.2c2.5,0.1,2.8-3,2.4-3.3c-0.3-0.2-1,0.1-1.6,1
		C169.4,13.4,169.1,14.1,169,15z M173.6,17.8c0-0.4,0.1-0.7,0.4-0.9c0.3-0.2,0.6-0.4,0.9-0.4s0.7,0.1,0.9,0.4s0.4,0.6,0.4,0.9
		s-0.1,0.7-0.4,0.9c-0.3,0.2-0.6,0.4-0.9,0.4s-0.7-0.1-0.9-0.4C173.7,18.5,173.6,18.2,173.6,17.8z M185.8,10.9l-1.2,6
		c-0.7,3.7-1.8,7.1-6.5,5.7l1.5-1.5c0.8,0.6,1.4,0.7,1.8,0.4l0.1-0.3l0.7-3.5c-1.8,2.2-5.2,1.7-4.9-1.6c0.3-3.7,2.4-5.1,4-5.2
		c0.3,0,0.6,0,0.9,0C182.2,10.9,185.8,10.9,185.8,10.9z M182.4,16.4l0.8-4c-1-1.8-2.9-0.1-3.5,2.6C179.1,17.9,180.2,19.4,182.4,16.4
		z M194,10.9l-1.2,6c-0.7,3.7-1.8,7.1-6.5,5.7l1.5-1.5c0.8,0.6,1.4,0.7,1.8,0.4l0.1-0.3l0.7-3.5c-1.8,2.2-5.2,1.7-4.9-1.6
		c0.3-3.7,2.4-5.1,4-5.2c0.3,0,0.6,0,0.9,0C190.4,10.9,194,10.9,194,10.9z M190.7,16.4l0.8-4c-1-1.8-2.9-0.1-3.5,2.6
		C187.3,17.9,188.5,19.4,190.7,16.4z"/>
</svg>
